#!OML:ASF X:\für Bonn\!DataBase\2005_08_11_Bastian_Final\c3d\Bastian.ASF
:FULLY-SPECIFIED
:DEGREES
278
root 21.6543 16.4042 -5.91464 550.691 -133.936 -165.434
lowerback 66.7358 0.0411266 10.1068
upperback 17.2544 4.45498 1.20507
thorax -1.18271 2.08927 -4.50735
lowerneck -5.47713 -11.2093 4.14366
upperneck -29.9228 -12.0647 19.0607
head -7.38881 -8.73576 6.29964
rclavicle -5.08889e-014 2.06736e-014
rhumerus 57.4216 10.314 -38.8815
rradius 23.3541
rwrist -15.3749
rhand -40.3475 -4.76645
rfingers 7.12502
rthumb -13.3028 -34.3219
lclavicle -5.08889e-014 2.06736e-014
lhumerus -10.33 -28.9192 90.1382
lradius 40.2229
lwrist 30.7909
lhand -10.8712 -15.3678
lfingers 7.12502
lthumb 15.1446 14.0581
rfemur -63.3607 -30.9384 28.9334
rtibia 63.8255
rfoot -21.1669 -6.11247
rtoes 12.6184
lfemur -56.1425 -12.2434 -26.8662
ltibia 44.2439
lfoot -0.954273 -18.4578
ltoes -20.7712
279
root 21.6477 16.4379 -5.90276 550.391 -133.732 -165.79
lowerback 66.3414 0.274563 9.94223
upperback 17.3189 4.55467 1.27235
thorax -1.14154 2.1122 -4.4163
lowerneck -5.27612 -11.2666 4.14634
upperneck -30.0111 -12.1191 19.0938
head -7.44726 -8.77485 6.33451
rclavicle 9.54166e-015 1.19271e-014
rhumerus 56.8033 11.1195 -39.4277
rradius 23.4467
rwrist -15.0585
rhand -40.0798 -4.27077
rfingers 7.12502
rthumb -13.0447 -33.8429
lclavicle 9.54166e-015 1.19271e-014
lhumerus -10.3348 -28.9404 90.1545
lradius 39.9441
lwrist 30.7632
lhand -10.9565 -15.2074
lfingers 7.12502
lthumb 15.0624 14.2246
rfemur -62.1777 -30.6859 28.6461
rtibia 63.2932
rfoot -21.0953 -6.20938
rtoes 12.5742
lfemur -55.2652 -12.083 -26.682
ltibia 43.8728
lfoot -0.975243 -18.3141
ltoes -20.9319
280
root 21.6409 16.4718 -5.89054 550.033 -133.494 -166.114
lowerback 66.0061 0.524528 9.73139
upperback 17.3483 4.65437 1.32254
thorax -1.14131 2.13151 -4.32467
lowerneck -5.06325 -11.3106 4.19112
upperneck -30.0796 -12.1607 19.0951
head -7.50889 -8.80691 6.35232
rclavicle -1.46306e-013 9.54166e-015
rhumerus 56.1565 11.9571 -40.0118
rradius 23.5454
rwrist -14.8878
rhand -39.7799 -3.77527
rfingers 7.12502
rthumb -12.7556 -33.3656
lclavicle -1.46306e-013 9.54166e-015
lhumerus -10.3706 -28.9116 90.1764
lradius 39.6186
lwrist 30.6867
lhand -11.0644 -15.0944
lfingers 7.12502
lthumb 14.9585 14.3454
rfemur -60.9699 -30.4373 28.3383
rtibia 62.7554
rfoot -20.9694 -6.31102
rtoes 12.4169
lfemur -54.3452 -11.9386 -26.5049
ltibia 43.5083
lfoot -1.0618 -18.1157
ltoes -21.2377
281
root 21.633 16.5056 -5.87649 549.736 -133.268 -166.485
lowerback 65.5973 0.753576 9.56794
upperback 17.3945 4.75495 1.37369
thorax -1.11786 2.15616 -4.25234
lowerneck -4.89397 -11.3679 4.27718
upperneck -30.1298 -12.2418 19.0356
head -7.5628 -8.85401 6.33993
rclavicle 1.11319e-013 3.18055e-014
rhumerus 55.4793 12.7963 -40.5495
rradius 23.689
rwrist -14.8329
rhand -39.4394 -3.39917
rfingers 7.12502
rthumb -12.4273 -33.0097
lclavicle 1.11319e-013 3.18055e-014
lhumerus -10.4152 -28.9895 90.1759
lradius 39.3398
lwrist 30.6758
lhand -11.183 -14.9566
lfingers 7.12502
lthumb 14.8442 14.4917
rfemur -59.7745 -30.1762 28.0681
rtibia 62.2116
rfoot -20.8716 -6.41948
rtoes 12.3785
lfemur -53.4453 -11.7734 -26.3156
ltibia 43.1429
lfoot -1.14019 -17.9409
ltoes -21.5039
282
root 21.6238 16.5398 -5.86208 549.389 -133.014 -166.849
lowerback 65.232 0.997245 9.37155
upperback 17.4323 4.85681 1.42
thorax -1.10457 2.17887 -4.17111
lowerneck -4.69153 -11.4091 4.33857
upperneck -30.2182 -12.2875 19.0002
head -7.63431 -8.88723 6.34527
rclavicle -2.8625e-014 2.38542e-014
rhumerus 54.7892 13.6543 -41.1453
rradius 23.8088
rwrist -14.7456
rhand -39.1475 -2.91617
rfingers 7.12502
rthumb -12.1459 -32.5436
lclavicle -2.8625e-014 2.38542e-014
lhumerus -10.4625 -28.9891 90.1787
lradius 39.0598
lwrist 30.5869
lhand -11.2971 -14.7587
lfingers 7.12502
lthumb 14.7343 14.6976
rfemur -58.5163 -29.8995 27.778
rtibia 61.6547
rfoot -20.7572 -6.52266
rtoes 12.2313
lfemur -52.496 -11.6309 -26.1025
ltibia 42.7857
lfoot -1.19251 -17.7093
ltoes -21.3936
283
root 21.6133 16.5725 -5.84685 549.083 -132.77 -167.215
lowerback 64.8143 1.23833 9.17879
upperback 17.4617 4.96175 1.48094
thorax -1.10148 2.20181 -4.07744
lowerneck -4.46971 -11.456 4.36857
upperneck -30.3342 -12.3392 18.9623
head -7.7156 -8.92225 6.35873
rclavicle -2.22639e-014 7.4743e-014
rhumerus 54.056 14.4846 -41.8555
rradius 23.917
rwrist -14.6954
rhand -38.7881 -2.27841
rfingers 7.12502
rthumb -11.7993 -31.926
lclavicle -2.22639e-014 7.4743e-014
lhumerus -10.5273 -29.0548 90.214
lradius 38.7821
lwrist 30.5455
lhand -11.4334 -14.5112
lfingers 7.12502
lthumb 14.6029 14.9547
rfemur -57.3255 -29.6483 27.5382
rtibia 61.1015
rfoot -20.6714 -6.60817
rtoes 11.9976
lfemur -51.5755 -11.4443 -25.9233
ltibia 42.4312
lfoot -1.25502 -17.5493
ltoes -21.5485
284
root 21.6022 16.6064 -5.83052 548.781 -132.515 -167.595
lowerback 64.4118 1.46468 9.02691
upperback 17.4807 5.07709 1.51739
thorax -1.1013 2.23525 -4.0306
lowerneck -4.25491 -11.5147 4.4618
upperneck -30.4757 -12.4135 18.8821
head -7.8132 -8.9721 6.35267
rclavicle 7.95139e-014 -6.48038e-014
rhumerus 53.2482 15.2699 -42.6173
rradius 24.0022
rwrist -14.5664
rhand -38.5127 -1.59213
rfingers 7.12502
rthumb -11.5338 -31.2548
lclavicle 7.95139e-014 -6.48038e-014
lhumerus -10.5539 -29.1076 90.21
lradius 38.4791
lwrist 30.5401
lhand -11.4841 -14.279
lfingers 7.12502
lthumb 14.5541 15.1904
rfemur -56.1147 -29.391 27.3064
rtibia 60.5376
rfoot -20.5654 -6.68622
rtoes 11.8372
lfemur -50.6527 -11.2926 -25.7118
ltibia 42.0831
lfoot -1.32575 -17.359
ltoes -21.5869
285
root 21.5903 16.6379 -5.81336 548.458 -132.268 -167.974
lowerback 64.0246 1.69299 8.84426
upperback 17.4802 5.18711 1.58407
thorax -1.128 2.25895 -3.93555
lowerneck -4.03282 -11.5724 4.48785
upperneck -30.5772 -12.4901 18.8137
head -7.8901 -9.01343 6.356
rclavicle -1.17681e-013 5.1684e-014
rhumerus 52.4279 16.1368 -43.3513
rradius 24.1253
rwrist -14.5065
rhand -38.2565 -0.87047
rfingers 7.12502
rthumb -11.2866 -30.5468
lclavicle -1.17681e-013 5.1684e-014
lhumerus -10.5982 -29.0749 90.2511
lradius 38.1683
lwrist 30.5625
lhand -11.4554 -14.0295
lfingers 7.12502
lthumb 14.5817 15.4379
rfemur -54.8754 -29.1311 27.0585
rtibia 59.9778
rfoot -20.4555 -6.77081
rtoes 11.6778
lfemur -49.6915 -11.12 -25.5282
ltibia 41.7351
lfoot -1.41934 -17.1964
ltoes -21.8501
286
root 21.5774 16.6704 -5.7955 548.143 -131.993 -168.337
lowerback 63.5952 1.93225 8.6465
upperback 17.4975 5.29591 1.63723
thorax -1.13408 2.28514 -3.84884
lowerneck -3.80471 -11.6196 4.5496
upperneck -30.7336 -12.5519 18.7191
head -7.9949 -9.05323 6.35262
rclavicle 7.31528e-014 -4.96962e-014
rhumerus 51.6046 17.0422 -43.965
rradius 24.3031
rwrist -14.5498
rhand -38.0191 -0.251829
rfingers 7.12502
rthumb -11.0577 -29.9405
lclavicle 7.31528e-014 -4.96962e-014
lhumerus -10.5707 -28.9993 90.2491
lradius 37.8341
lwrist 30.6249
lhand -11.4446 -13.858
lfingers 7.12502
lthumb 14.5922 15.6087
rfemur -53.6592 -28.8354 26.8121
rtibia 59.4161
rfoot -20.3557 -6.86202
rtoes 11.5177
lfemur -48.7537 -10.9423 -25.3439
ltibia 41.3846
lfoot -1.48719 -17.004
ltoes -21.7628
287
root 21.5625 16.7025 -5.7764 547.802 -131.719 -168.68
lowerback 63.1714 2.17531 8.42535
upperback 17.516 5.4007 1.70471
thorax -1.14134 2.30676 -3.73442
lowerneck -3.6083 -11.6658 4.60462
upperneck -30.8739 -12.6239 18.6038
head -8.08896 -9.09303 6.33949
rclavicle 3.81667e-014 -4.96962e-015
rhumerus 50.7779 17.926 -44.6279
rradius 24.4691
rwrist -14.5632
rhand -37.8114 0.379957
rfingers 7.12502
rthumb -10.8574 -29.3194
lclavicle 3.81667e-014 -4.96962e-015
lhumerus -10.5416 -28.8554 90.2696
lradius 37.4887
lwrist 30.608
lhand -11.4765 -13.7521
lfingers 7.12502
lthumb 14.5614 15.7168
rfemur -52.4144 -28.5247 26.5349
rtibia 58.8532
rfoot -20.2687 -6.96715
rtoes 11.2787
lfemur -47.777 -10.7588 -25.1891
ltibia 41.0361
lfoot -1.60397 -16.8285
ltoes -22.0113
288
root 21.547 16.7335 -5.75649 547.447 -131.439 -169.007
lowerback 62.7479 2.41325 8.19222
upperback 17.5267 5.49817 1.77433
thorax -1.15779 2.324 -3.60955
lowerneck -3.37726 -11.723 4.6259
upperneck -31.0352 -12.7069 18.4984
head -8.19174 -9.13746 6.33977
rclavicle -2.8625e-014 -1.90833e-014
rhumerus 49.9295 18.8287 -45.2828
rradius 24.6335
rwrist -14.5454
rhand -37.6239 0.991428
rfingers 7.12502
rthumb -10.6765 -28.7173
lclavicle -2.8625e-014 -1.90833e-014
lhumerus -10.5294 -28.697 90.295
lradius 37.174
lwrist 30.553
lhand -11.541 -13.6659
lfingers 7.12502
lthumb 14.4993 15.8074
rfemur -51.1669 -28.193 26.2454
rtibia 58.2919
rfoot -20.1801 -7.08209
rtoes 11.1259
lfemur -46.7986 -10.5625 -25.0506
ltibia 40.6813
lfoot -1.6721 -16.675
ltoes -21.9316
289
root 21.5304 16.7652 -5.73571 547.142 -131.141 -169.381
lowerback 62.3062 2.66555 7.96196
upperback 17.5429 5.61415 1.85443
thorax -1.16597 2.34937 -3.48084
lowerneck -3.23603 -11.7751 4.67132
upperneck -31.1255 -12.8038 18.3666
head -8.25734 -9.18097 6.31347
rclavicle -4.45278e-014 -3.16068e-014
rhumerus 49.0982 19.8047 -45.7212
rradius 24.8939
rwrist -14.7825
rhand -37.4704 1.53431
rfingers 7.12502
rthumb -10.5284 -28.182
lclavicle -4.45278e-014 -3.16068e-014
lhumerus -10.4708 -28.5529 90.3149
lradius 36.8183
lwrist 30.4845
lhand -11.5727 -13.6367
lfingers 7.12502
lthumb 14.4687 15.8389
rfemur -49.9214 -27.8144 25.9938
rtibia 57.7205
rfoot -20.1009 -7.21797
rtoes 10.9876
lfemur -45.8301 -10.3708 -24.8628
ltibia 40.3306
lfoot -1.75972 -16.4995
ltoes -21.9403
